<svg width="234" height="68" viewBox="0 0 234 68" fill="none" xmlns="http://www.w3.org/2000/svg">
<path d="M18.0238 5.296C21.1918 5.296 23.9438 5.984 26.2798 7.36C28.6478 8.736 30.4718 10.704 31.7518 13.264C33.0318 15.792 33.6718 18.784 33.6718 22.24C33.6718 27.104 32.8238 31.344 31.1278 34.96C29.4638 38.576 27.0798 41.36 23.9758 43.312C20.8718 45.264 17.2398 46.24 13.0798 46.24C9.01575 46.24 5.89575 45.424 3.71975 43.792C1.54375 42.128 0.45575 39.856 0.45575 36.976C0.45575 35.408 0.75975 34.192 1.36775 33.328C2.00775 32.464 2.90375 32.032 4.05575 32.032C4.91975 32.032 5.62375 32.272 6.16775 32.752C6.71175 33.2 6.98375 33.808 6.98375 34.576C6.98375 34.992 6.95175 35.456 6.88775 35.968L6.83975 37.024C6.83975 38.464 7.35175 39.488 8.37575 40.096C9.39975 40.704 11.1758 41.008 13.7038 41.008C16.9998 41.008 19.7198 39.904 21.8638 37.696C24.0398 35.488 25.4798 32.336 26.1838 28.24L19.7038 28.192C17.6558 28.192 16.1198 28.208 15.0958 28.24L10.4398 28.288C9.73575 28.288 9.17575 28.048 8.75975 27.568C8.37575 27.088 8.18375 26.528 8.18375 25.888C8.18375 25.056 8.42375 24.368 8.90375 23.824C9.41575 23.248 10.1358 22.976 11.0638 23.008C12.9518 23.072 15.7998 23.104 19.6078 23.104C22.7118 23.104 25.0478 23.088 26.6158 23.056V22.576C26.6158 18.992 25.7678 16.192 24.0718 14.176C22.3758 12.16 20.0398 11.152 17.0638 11.152C15.2398 11.152 13.4158 11.536 11.5918 12.304C9.76775 13.04 8.08775 14.112 6.55175 15.52C5.87975 16.16 5.23975 16.48 4.63175 16.48C4.18375 16.48 3.81575 16.256 3.52775 15.808C3.27175 15.36 3.14375 14.72 3.14375 13.888C3.14375 12.384 3.76775 11.056 5.01575 9.904C6.55175 8.464 8.43975 7.344 10.6797 6.544C12.9518 5.712 15.3998 5.296 18.0238 5.296ZM62.4181 31.264C62.8341 31.264 63.1541 31.472 63.3781 31.888C63.6021 32.304 63.7141 32.832 63.7141 33.472C63.7141 34.272 63.6021 34.896 63.3781 35.344C63.1541 35.76 62.8021 36.048 62.3221 36.208C60.4021 36.88 58.2901 37.264 55.9861 37.36C55.3461 40.016 54.1301 42.16 52.3381 43.792C50.5781 45.424 48.6261 46.24 46.4821 46.24C43.2501 46.24 40.8981 45.008 39.4261 42.544C37.9541 40.08 37.2181 36.512 37.2181 31.84C37.2181 27.712 37.7301 23.232 38.7541 18.4C39.7781 13.536 41.2661 9.408 43.2181 6.016C45.2021 2.592 47.5541 0.879997 50.2741 0.879997C51.7461 0.879997 52.9301 1.52 53.8261 2.8C54.7221 4.048 55.1701 5.68 55.1701 7.696C55.1701 10.32 54.6741 12.928 53.6821 15.52C52.6901 18.112 51.0421 20.832 48.7381 23.68C50.8821 23.84 52.6261 24.736 53.9701 26.368C55.3141 27.968 56.1141 29.952 56.3701 32.32C57.8741 32.224 59.6661 31.904 61.7461 31.36C61.9381 31.296 62.1621 31.264 62.4181 31.264ZM49.1701 5.632C48.5301 5.632 47.8261 6.592 47.0581 8.512C46.3221 10.4 45.6341 12.976 44.9941 16.24C44.3541 19.504 43.8741 23.072 43.5541 26.944C45.6661 23.072 47.3461 19.664 48.5941 16.72C49.8741 13.744 50.5141 11.104 50.5141 8.8C50.5141 7.776 50.3861 6.992 50.1301 6.448C49.9061 5.904 49.5861 5.632 49.1701 5.632ZM46.6741 41.152C47.6661 41.152 48.5461 40.736 49.3141 39.904C50.0821 39.072 50.5941 37.872 50.8501 36.304C49.8581 35.632 49.0901 34.752 48.5461 33.664C48.0341 32.576 47.7781 31.424 47.7781 30.208C47.7781 29.76 47.8421 29.152 47.9701 28.384H47.8261C46.5141 28.384 45.4101 29.04 44.5141 30.352C43.6501 31.632 43.2181 33.36 43.2181 35.536C43.2181 37.36 43.5541 38.752 44.2261 39.712C44.9301 40.672 45.7461 41.152 46.6741 41.152ZM65.4736 46.24C63.4896 46.24 61.9056 45.52 60.7216 44.08C59.5376 42.64 58.9456 40.752 58.9456 38.416C58.9456 35.856 59.5376 33.44 60.7216 31.168C61.9056 28.864 63.4736 27.024 65.4256 25.648C67.4096 24.24 69.5056 23.536 71.7136 23.536C72.4176 23.536 72.8816 23.68 73.1056 23.968C73.3616 24.224 73.5696 24.704 73.7296 25.408C74.4016 25.28 75.1056 25.216 75.8416 25.216C77.4096 25.216 78.1936 25.776 78.1936 26.896C78.1936 27.568 77.9536 29.168 77.4736 31.696C76.7376 35.376 76.3696 37.936 76.3696 39.376C76.3696 39.856 76.4816 40.24 76.7056 40.528C76.9616 40.816 77.2816 40.96 77.6656 40.96C78.2736 40.96 79.0096 40.576 79.8736 39.808C80.7376 39.008 81.9056 37.728 83.3776 35.968C83.7616 35.52 84.1936 35.296 84.6736 35.296C85.0896 35.296 85.4096 35.488 85.6336 35.872C85.8896 36.256 86.0176 36.784 86.0176 37.456C86.0176 38.736 85.7136 39.728 85.1056 40.432C83.7936 42.064 82.4016 43.44 80.9296 44.56C79.4576 45.68 78.0336 46.24 76.6576 46.24C75.6016 46.24 74.6256 45.888 73.7296 45.184C72.8656 44.448 72.2096 43.456 71.7616 42.208C70.0976 44.896 68.0016 46.24 65.4736 46.24ZM67.2016 41.392C67.9056 41.392 68.5776 40.976 69.2176 40.144C69.8576 39.312 70.3216 38.208 70.6096 36.832L72.3856 28C71.0416 28.032 69.7936 28.544 68.6416 29.536C67.5216 30.496 66.6256 31.776 65.9536 33.376C65.2816 34.976 64.9456 36.672 64.9456 38.464C64.9456 39.456 65.1376 40.192 65.5216 40.672C65.9376 41.152 66.4976 41.392 67.2016 41.392ZM85.5245 46.24C84.3085 46.24 83.4445 45.6 82.9325 44.32C82.4525 43.04 82.2125 40.992 82.2125 38.176C82.2125 34.016 82.8045 30.064 83.9885 26.32C84.2765 25.392 84.7405 24.72 85.3805 24.304C86.0525 23.856 86.9805 23.632 88.1645 23.632C88.8045 23.632 89.2525 23.712 89.5085 23.872C89.7645 24.032 89.8925 24.336 89.8925 24.784C89.8925 25.296 89.6525 26.448 89.1725 28.24C89.1085 28.464 88.9645 28.976 88.7405 29.776C88.5485 30.576 88.3565 31.52 88.1645 32.608C88.0045 33.664 87.8925 34.832 87.8285 36.112C88.9805 31.632 90.4365 28.432 92.1965 26.512C93.9565 24.592 96.0845 23.632 98.5805 23.632C100.245 23.632 101.541 24.16 102.469 25.216C103.429 26.24 103.909 27.568 103.909 29.2C103.909 30.544 103.605 31.68 102.997 32.608C102.421 33.536 101.653 34 100.693 34C100.085 34 99.5885 33.856 99.2045 33.568C98.8525 33.28 98.6765 32.88 98.6765 32.368C98.6765 32.144 98.7085 31.888 98.7725 31.6C98.8365 31.312 98.8845 31.104 98.9165 30.976C99.0765 30.496 99.1565 30.048 99.1565 29.632C99.1565 28.768 98.7405 28.336 97.9085 28.336C97.2685 28.336 96.6445 28.672 96.0365 29.344C95.4285 29.984 94.9325 30.864 94.5485 31.984C94.1965 33.072 94.0205 34.256 94.0205 35.536C94.0205 37.264 94.4205 38.656 95.2205 39.712C96.0205 40.736 97.1725 41.248 98.6765 41.248C99.8605 41.248 100.917 40.864 101.845 40.096C102.773 39.296 104.053 37.92 105.685 35.968C106.069 35.52 106.501 35.296 106.981 35.296C107.397 35.296 107.717 35.488 107.941 35.872C108.197 36.256 108.325 36.784 108.325 37.456C108.325 38.736 108.021 39.728 107.413 40.432C105.973 42.16 104.533 43.568 103.093 44.656C101.653 45.712 100.021 46.24 98.1965 46.24C96.6925 46.24 95.3165 45.92 94.0685 45.28C92.8525 44.608 91.8605 43.808 91.0925 42.88C90.3245 41.952 89.8285 41.056 89.6045 40.192C89.5405 40.448 89.3005 41.344 88.8845 42.88C88.5325 44.16 88.1165 45.04 87.6365 45.52C87.1885 46 86.4845 46.24 85.5245 46.24ZM129.005 35.392C129.421 35.392 129.741 35.6 129.965 36.016C130.221 36.4 130.349 36.896 130.349 37.504C130.349 38.24 130.237 38.816 130.013 39.232C129.789 39.648 129.437 40.016 128.957 40.336L119.741 46.528C118.525 53.152 116.925 58.352 114.941 62.128C112.989 65.936 110.493 67.84 107.453 67.84C105.821 67.84 104.493 67.328 103.469 66.304C102.445 65.312 101.933 64 101.933 62.368C101.933 60.864 102.269 59.328 102.941 57.76C103.645 56.192 104.925 54.384 106.781 52.336C108.669 50.32 111.325 48 114.749 45.376L114.893 44.272C115.117 43.088 115.373 41.392 115.661 39.184C115.021 41.488 114.125 43.248 112.973 44.464C111.821 45.648 110.605 46.24 109.325 46.24C107.885 46.24 106.701 45.584 105.773 44.272C104.877 42.928 104.429 41.264 104.429 39.28C104.429 36.88 104.589 34.688 104.909 32.704C105.229 30.688 105.757 28.56 106.493 26.32C106.813 25.36 107.261 24.672 107.837 24.256C108.413 23.84 109.325 23.632 110.573 23.632C111.277 23.632 111.757 23.744 112.013 23.968C112.301 24.192 112.445 24.528 112.445 24.976C112.445 25.232 112.269 26.096 111.917 27.568C111.597 28.752 111.341 29.824 111.149 30.784C110.893 32.096 110.669 33.36 110.477 34.576C110.285 35.76 110.189 36.736 110.189 37.504C110.189 38.72 110.525 39.328 111.197 39.328C111.677 39.328 112.269 38.848 112.973 37.888C113.709 36.928 114.477 35.472 115.277 33.52C116.109 31.568 116.909 29.168 117.677 26.32C117.933 25.36 118.317 24.672 118.829 24.256C119.373 23.84 120.173 23.632 121.229 23.632C121.965 23.632 122.477 23.728 122.765 23.92C123.053 24.112 123.197 24.432 123.197 24.88C123.197 25.68 122.781 28.432 121.949 33.136L120.701 40.864C123.165 39.008 125.565 37.312 127.901 35.776C128.317 35.52 128.685 35.392 129.005 35.392ZM107.981 63.184C108.781 63.184 109.677 62.256 110.669 60.4C111.661 58.544 112.653 55.456 113.645 51.136C111.181 53.216 109.389 55.104 108.269 56.8C107.181 58.528 106.637 60.032 106.637 61.312C106.637 61.856 106.733 62.304 106.925 62.656C107.149 63.008 107.501 63.184 107.981 63.184ZM132.833 46.24C130.849 46.24 129.265 45.52 128.081 44.08C126.897 42.64 126.305 40.752 126.305 38.416C126.305 35.856 126.897 33.44 128.081 31.168C129.265 28.864 130.833 27.024 132.785 25.648C134.769 24.24 136.865 23.536 139.073 23.536C139.777 23.536 140.241 23.68 140.465 23.968C140.721 24.224 140.929 24.704 141.089 25.408C141.761 25.28 142.465 25.216 143.201 25.216C144.769 25.216 145.553 25.776 145.553 26.896C145.553 27.568 145.313 29.168 144.833 31.696C144.097 35.376 143.729 37.936 143.729 39.376C143.729 39.856 143.841 40.24 144.065 40.528C144.321 40.816 144.641 40.96 145.025 40.96C145.633 40.96 146.369 40.576 147.233 39.808C148.097 39.008 149.265 37.728 150.737 35.968C151.121 35.52 151.553 35.296 152.033 35.296C152.449 35.296 152.769 35.488 152.993 35.872C153.249 36.256 153.377 36.784 153.377 37.456C153.377 38.736 153.073 39.728 152.465 40.432C151.153 42.064 149.761 43.44 148.289 44.56C146.817 45.68 145.393 46.24 144.017 46.24C142.961 46.24 141.985 45.888 141.089 45.184C140.225 44.448 139.569 43.456 139.121 42.208C137.457 44.896 135.361 46.24 132.833 46.24ZM134.561 41.392C135.265 41.392 135.937 40.976 136.577 40.144C137.217 39.312 137.681 38.208 137.969 36.832L139.745 28C138.401 28.032 137.153 28.544 136.001 29.536C134.881 30.496 133.985 31.776 133.313 33.376C132.641 34.976 132.305 36.672 132.305 38.464C132.305 39.456 132.497 40.192 132.881 40.672C133.297 41.152 133.857 41.392 134.561 41.392ZM152.884 46.24C151.668 46.24 150.804 45.6 150.292 44.32C149.812 43.04 149.572 40.992 149.572 38.176C149.572 34.016 150.164 30.064 151.348 26.32C151.636 25.392 152.1 24.72 152.74 24.304C153.412 23.856 154.34 23.632 155.524 23.632C156.164 23.632 156.612 23.712 156.868 23.872C157.124 24.032 157.252 24.336 157.252 24.784C157.252 25.296 157.012 26.448 156.532 28.24C156.212 29.52 155.956 30.64 155.764 31.6C155.572 32.528 155.412 33.696 155.284 35.104C156.148 32.608 157.172 30.496 158.356 28.768C159.572 27.04 160.804 25.76 162.052 24.928C163.332 24.064 164.532 23.632 165.652 23.632C166.772 23.632 167.556 23.888 168.004 24.4C168.484 24.912 168.724 25.696 168.724 26.752C168.724 27.776 168.42 29.632 167.812 32.32C167.556 33.472 167.38 34.336 167.284 34.912C168.884 30.976 170.66 28.112 172.612 26.32C174.564 24.528 176.388 23.632 178.084 23.632C180.164 23.632 181.204 24.672 181.204 26.752C181.204 28 180.852 30.256 180.148 33.52C179.54 36.304 179.236 38.144 179.236 39.04C179.236 40.32 179.7 40.96 180.628 40.96C181.268 40.96 182.02 40.576 182.884 39.808C183.78 39.008 184.964 37.728 186.436 35.968C186.82 35.52 187.252 35.296 187.732 35.296C188.148 35.296 188.468 35.488 188.692 35.872C188.948 36.256 189.076 36.784 189.076 37.456C189.076 38.736 188.772 39.728 188.164 40.432C186.788 42.128 185.3 43.52 183.7 44.608C182.132 45.696 180.34 46.24 178.324 46.24C176.692 46.24 175.46 45.776 174.628 44.848C173.796 43.888 173.38 42.512 173.38 40.72C173.38 39.824 173.604 38.224 174.052 35.92C174.468 33.904 174.676 32.512 174.676 31.744C174.676 31.232 174.5 30.976 174.148 30.976C173.732 30.976 173.14 31.52 172.372 32.608C171.604 33.664 170.836 35.072 170.068 36.832C169.3 38.592 168.676 40.448 168.196 42.4C167.844 43.936 167.428 44.96 166.948 45.472C166.5 45.984 165.764 46.24 164.74 46.24C163.684 46.24 162.884 45.744 162.34 44.752C161.828 43.728 161.572 42.496 161.572 41.056C161.572 39.84 161.732 38.08 162.052 35.776C162.308 33.728 162.436 32.384 162.436 31.744C162.436 31.232 162.26 30.976 161.908 30.976C161.428 30.976 160.82 31.552 160.084 32.704C159.348 33.856 158.628 35.328 157.924 37.12C157.252 38.912 156.708 40.672 156.292 42.4C155.94 43.904 155.524 44.928 155.044 45.472C154.596 45.984 153.876 46.24 152.884 46.24ZM209.675 31.264C210.091 31.264 210.411 31.472 210.635 31.888C210.859 32.304 210.971 32.832 210.971 33.472C210.971 35.008 210.507 35.92 209.579 36.208C207.659 36.88 205.547 37.264 203.243 37.36C202.635 40.048 201.435 42.208 199.643 43.84C197.851 45.44 195.819 46.24 193.547 46.24C191.627 46.24 189.979 45.776 188.603 44.848C187.259 43.92 186.235 42.688 185.531 41.152C184.827 39.616 184.475 37.952 184.475 36.16C184.475 33.728 184.939 31.568 185.867 29.68C186.795 27.76 188.075 26.272 189.707 25.216C191.339 24.128 193.147 23.584 195.131 23.584C197.563 23.584 199.515 24.432 200.987 26.128C202.491 27.792 203.371 29.856 203.627 32.32C205.131 32.224 206.923 31.904 209.003 31.36C209.259 31.296 209.483 31.264 209.675 31.264ZM193.931 41.152C194.955 41.152 195.835 40.736 196.571 39.904C197.339 39.072 197.851 37.872 198.107 36.304C197.115 35.632 196.347 34.752 195.803 33.664C195.291 32.576 195.035 31.424 195.035 30.208C195.035 29.696 195.083 29.184 195.179 28.672H194.939C193.659 28.672 192.587 29.296 191.723 30.544C190.891 31.76 190.475 33.488 190.475 35.728C190.475 37.488 190.811 38.832 191.483 39.76C192.187 40.688 193.003 41.152 193.931 41.152ZM232.483 35.296C232.899 35.296 233.219 35.488 233.443 35.872C233.699 36.256 233.827 36.784 233.827 37.456C233.827 38.736 233.523 39.728 232.915 40.432C231.539 42.128 230.051 43.52 228.451 44.608C226.883 45.696 225.091 46.24 223.075 46.24C221.379 46.24 220.003 45.632 218.947 44.416C217.123 45.6 215.219 46.208 213.235 46.24C212.819 52.416 211.875 57.568 210.403 61.696C208.931 65.856 206.771 67.936 203.923 67.936C202.195 67.936 200.915 67.312 200.083 66.064C199.251 64.816 198.835 63.088 198.835 60.88C198.835 57.744 199.555 54.08 200.995 49.888C202.435 45.728 204.659 41.136 207.667 36.112C207.667 31.44 207.635 28.192 207.571 26.368C207.539 25.44 207.907 24.704 208.675 24.16C209.443 23.616 210.403 23.344 211.555 23.344C212.227 23.344 212.707 23.488 212.995 23.776C213.315 24.032 213.491 24.56 213.523 25.36C213.523 26.16 213.539 26.752 213.571 27.136C214.595 25.856 215.603 24.944 216.595 24.4C217.587 23.824 218.643 23.536 219.763 23.536C221.555 23.536 223.011 24.256 224.131 25.696C225.283 27.136 225.859 29.024 225.859 31.36C225.859 33.056 225.587 34.704 225.043 36.304C224.499 37.904 223.747 39.36 222.787 40.672C223.459 40.864 224.019 40.96 224.467 40.96C225.523 40.96 226.531 40.576 227.491 39.808C228.451 39.04 229.683 37.76 231.187 35.968C231.571 35.52 232.003 35.296 232.483 35.296ZM213.475 41.632C214.627 41.376 215.683 40.752 216.643 39.76C217.635 38.736 218.419 37.488 218.995 36.016C219.571 34.512 219.859 32.944 219.859 31.312C219.859 30.352 219.667 29.632 219.283 29.152C218.899 28.64 218.387 28.384 217.747 28.384C216.595 28.384 215.203 29.6 213.571 32.032C213.539 33.44 213.523 35.504 213.523 38.224C213.523 39.696 213.507 40.832 213.475 41.632ZM204.307 63.232C205.171 63.232 205.891 61.344 206.467 57.568C207.043 53.824 207.411 49.152 207.571 43.552C206.195 46.752 205.107 49.808 204.307 52.72C203.507 55.632 203.107 58.08 203.107 60.064C203.107 61.088 203.235 61.872 203.491 62.416C203.715 62.96 203.987 63.232 204.307 63.232Z" fill="black"/>
</svg>
